<svg width="50" height="50" viewBox="0 0 50 50" fill="none" xmlns="http://www.w3.org/2000/svg">
<g clip-path="url(#clip0_18_28)">
<path d="M50 0H0V50H50V0Z" fill="white"/>
<path d="M25 14.394C22.7081 11.477 19.1751 8.55996 10.4191 8.3459C9.84402 8.33185 9.375 8.799 9.375 9.37429C9.375 13.642 9.375 29.7988 9.375 34.5771C9.375 35.1523 9.84406 35.6042 10.419 35.6229C19.1751 35.9092 22.7081 39.7913 25 42.7084M25 14.394C27.2919 11.477 30.8248 8.55996 39.5808 8.3459C40.156 8.33185 40.625 8.7885 40.625 9.36379C40.625 14.1343 40.625 29.805 40.625 34.5756C40.625 35.1509 40.156 35.6042 39.581 35.6229C30.825 35.9092 27.2919 39.7913 25 42.7084M25 14.394V42.7084" stroke="#BA4F4F" stroke-width="2.5" stroke-linejoin="round"/>
<path d="M40.0735 12.5H44.7917C45.3669 12.5 45.8333 12.9664 45.8333 13.5417V40.7062C45.8333 41.5492 44.8402 42.1092 44.0698 41.7669C42.4133 41.0308 39.649 40.1317 36.0294 40.1317C29.9019 40.1317 25 43.75 25 43.75C25 43.75 20.098 40.1317 13.9706 40.1317C10.3509 40.1317 7.58657 41.0308 5.93014 41.7669C5.15974 42.1092 4.16666 41.5492 4.16666 40.7062V13.5417C4.16666 12.9664 4.63303 12.5 5.20832 12.5H9.92647" stroke="#BA4F4F" stroke-width="2.5" stroke-linejoin="round"/>
</g>
<defs>
<clipPath id="clip0_18_28">
<rect width="50" height="50" fill="white"/>
</clipPath>
</defs>
</svg>
