<svg width="246" height="221" viewBox="0 0 246 221" fill="none" xmlns="http://www.w3.org/2000/svg">
<path d="M194.022 14.2947L16.4628 20.942V40.8026L205.146 34.2831L194.022 14.2938V14.2947ZM185.141 42.7497L170.531 43.2548L175.23 123.456L193.754 120.128L185.141 42.7497ZM120.205 44.9934L111.369 45.2999L110.074 52.0378L97.3045 60.131L97.367 60.5048L97.2358 60.4845L95.7641 68.141L98.7373 68.6028L100.956 81.7226L116.106 84.0728L123.093 72.3806L126.065 72.8424L127.537 65.1851L127.406 65.1653L127.606 64.8316L118.597 53.3595L120.205 44.9934ZM82.9952 46.2797L72.0309 46.6587L53.0668 70.3018L52.2538 84.6055L82.9952 46.2801V46.2797ZM45.6988 47.5681L30.6722 48.0874L16.8731 165.853L38.8113 168.759L45.6988 47.5686V47.5681ZM113.836 55.2932L120.783 64.1375L103.992 61.5326L113.836 55.2932ZM103.979 69.4156L117.85 71.5673L114.481 77.2063L105.05 75.743L103.979 69.4156ZM210.022 125.128L173.298 131.727L151.682 125.254L137.89 137.643H219.308L210.022 125.128ZM85.0766 126.107L80.5506 135.053H72.6776V142.823H76.6199L73.1244 149.729H62.1073V157.498H69.1942L65.2625 165.268H52.4974V173.037H61.3313L54.7797 185.987H42.8881V193.756H50.8485L46.6386 202.076L54.512 205.292L60.3483 193.756H129.259L126.015 185.987H64.2795L70.8316 173.037H120.611L117.367 165.268H74.7628L78.6931 157.498H114.123L110.88 149.729H82.6248L86.1192 142.823H107.997L105.836 137.643H125.659L128.542 135.053H90.0504L92.95 129.323L85.0766 126.107ZM118.316 145.412L137.708 191.872C140.601 188.314 145.275 185.987 150.514 185.987C156.239 185.987 161.29 188.766 164.079 192.893H190.76C193.548 188.766 198.601 185.987 204.326 185.987C209.334 185.987 213.824 188.115 216.738 191.41L229.537 145.412H118.316ZM150.514 193.756C146.482 193.756 143.307 196.609 143.307 200.231C143.307 203.852 146.482 206.705 150.514 206.705C154.545 206.705 157.721 203.852 157.721 200.231C157.721 196.609 154.545 193.756 150.514 193.756ZM204.326 193.756C200.295 193.756 197.119 196.609 197.119 200.231C197.119 203.852 200.295 206.705 204.326 206.705C208.357 206.705 211.533 203.852 211.533 200.231C211.533 196.609 208.357 193.756 204.326 193.756Z" fill="#BA4F4F"/>
</svg>
