<svg width="423" height="409" viewBox="0 0 423 409" fill="none" xmlns="http://www.w3.org/2000/svg">
<path d="M284.278 29.3892L212.17 110.047L264.348 83.1615L268.014 81.2643L271.68 83.1855L286.81 91.1242L284.28 29.3892H284.278ZM109.571 48.3877L129.709 152.561L203.005 114.79L109.571 48.3877ZM267.961 98.2402L71.1796 199.639L161.076 245.648L357.267 145.195L267.962 98.2402H267.961ZM303.28 133.937L324.426 144.345L161.412 227.376L106.161 198.867L127.1 188.157L161.412 205.883L303.283 133.937L303.28 133.937ZM379.445 148.491L386.957 167.687L408.619 149.589L379.444 148.49L379.445 148.491ZM366.406 157.402L167.119 259.452L162.342 326.055L387.112 210.375L366.406 157.402ZM89.9998 173.03L16.0054 192.35L46.4713 207.978L51.5052 194.973L52.5379 192.326L55.1205 191.003L90.0015 173.03L89.9998 173.03ZM61.5481 211.623L37.7445 273.133L146.67 329.176L151.755 257.781L61.5473 211.624L61.5481 211.623ZM338.6 252.264L194.639 326.355L240.002 408.986L271.241 297.247L388.946 318.515L338.599 252.261L338.6 252.264ZM90.156 317.02L74.0968 352.817L121.291 333.021L90.1543 317.018L90.156 317.02Z" fill="#F2EB1B"/>
</svg>
