<svg width="55" height="50" viewBox="0 0 55 50" fill="none" xmlns="http://www.w3.org/2000/svg">
<path d="M27.5 25C25.8003 25 24.1388 24.5418 22.7256 23.6834C21.3123 22.8249 20.2109 21.6048 19.5604 20.1772C18.91 18.7497 18.7398 17.1788 19.0714 15.6634C19.403 14.1479 20.2214 12.7558 21.4233 11.6632C22.6252 10.5706 24.1564 9.82657 25.8234 9.52512C27.4905 9.22367 29.2184 9.37839 30.7887 9.96969C32.359 10.561 33.7012 11.5624 34.6454 12.8471C35.5897 14.1319 36.0938 15.6423 36.0938 17.1875C36.0938 19.2595 35.1883 21.2466 33.5767 22.7118C31.9651 24.1769 29.7792 25 27.5 25ZM27.5 12.5703C26.4802 12.5703 25.4833 12.8452 24.6353 13.3603C23.7874 13.8754 23.1265 14.6075 22.7363 15.464C22.346 16.3205 22.2439 17.263 22.4428 18.1723C22.6418 19.0816 23.1329 19.9168 23.854 20.5724C24.5751 21.2279 25.4939 21.6744 26.4941 21.8552C27.4943 22.0361 28.531 21.9433 29.4732 21.5885C30.4154 21.2337 31.2207 20.6329 31.7873 19.8621C32.3538 19.0912 32.6563 18.1849 32.6563 17.2578C32.6574 16.6416 32.5248 16.0312 32.2662 15.4616C32.0076 14.892 31.628 14.3743 31.1491 13.9382C30.6702 13.5021 30.1013 13.1561 29.4752 12.9201C28.8491 12.684 28.1779 12.5625 27.5 12.5625V12.5703Z" fill="#BA4F4F"/>
<path d="M27.5 46.2187C22.6691 46.2321 17.9556 44.8657 14.025 42.3125C13.8264 42.1841 13.6601 42.0188 13.5371 41.8276C13.4141 41.6363 13.3373 41.4234 13.3117 41.2031C13.2988 40.995 13.2988 40.7863 13.3117 40.5781C13.3117 37.151 14.8093 33.8643 17.4749 31.441C20.1406 29.0177 23.756 27.6563 27.5258 27.6562C31.2956 27.6563 34.911 29.0177 37.5766 31.441C40.2423 33.8643 41.7398 37.151 41.7398 40.5781C41.7527 40.7863 41.7527 40.995 41.7398 41.2031C41.7143 41.4234 41.6374 41.6363 41.5145 41.8276C41.3915 42.0188 41.2252 42.1841 41.0266 42.3125C37.0816 44.8751 32.3485 46.242 27.5 46.2187ZM16.732 40.2031C19.94 42.0896 23.6793 43.0932 27.5 43.0932C31.3207 43.0932 35.0599 42.0896 38.268 40.2031C38.1568 37.6746 36.9737 35.2832 34.9665 33.5299C32.9593 31.7766 30.2836 30.7974 27.5 30.7974C24.7164 30.7974 22.0407 31.7766 20.0335 33.5299C18.0263 35.2832 16.8432 37.6746 16.732 40.2031Z" fill="#BA4F4F"/>
<path d="M27.5 46.2187C22.6691 46.2321 17.9556 44.8657 14.025 42.3125C11.4157 40.6333 9.21385 38.4845 7.55604 35.9995C5.89822 33.5145 4.81984 30.7463 4.38781 27.8667C3.95577 24.9871 4.1793 22.0575 5.04452 19.2597C5.90975 16.4618 7.3982 13.8555 9.41752 11.6024C11.4368 9.34928 13.944 7.49746 16.7833 6.16184C19.6226 4.82623 22.7336 4.03531 25.9231 3.83816C29.1127 3.64102 32.3128 4.04186 35.3248 5.01581C38.3369 5.98977 41.0966 7.51605 43.4328 9.49995C43.7656 9.78381 43.9607 10.1762 43.9752 10.5909C43.9897 11.0055 43.8224 11.4084 43.5102 11.7109C43.1979 12.0134 42.7663 12.1908 42.3102 12.2039C41.8541 12.2171 41.4109 12.0651 41.0781 11.7812C39.0873 10.0835 36.7335 8.77648 34.1632 7.94133C31.5928 7.10617 28.8609 6.7608 26.1375 6.92669C23.414 7.09258 20.7572 7.76618 18.3324 8.9056C15.9076 10.045 13.7666 11.6259 12.0427 13.5498C10.3188 15.4737 9.04887 17.6995 8.31186 20.0888C7.57484 22.4781 7.38655 24.9797 7.75869 27.4379C8.13083 29.8962 9.05544 32.2585 10.475 34.378C11.8946 36.4975 13.7787 38.3287 16.0102 39.7578C19.3653 41.9256 23.3795 43.0903 27.4957 43.0903C31.6119 43.0903 35.6261 41.9256 38.9813 39.7578C42.6182 37.4189 45.2874 34.0388 46.5618 30.1581C47.8362 26.2773 47.6422 22.1202 46.0109 18.3515C45.9269 18.1607 45.885 17.9567 45.8876 17.7511C45.8903 17.5456 45.9374 17.3425 46.0264 17.1535C46.1154 16.9645 46.2444 16.7933 46.4062 16.6497C46.5679 16.5061 46.7592 16.3928 46.9692 16.3164C47.1791 16.2399 47.4035 16.2018 47.6296 16.2042C47.8557 16.2066 48.0791 16.2495 48.2869 16.3304C48.7068 16.4938 49.038 16.8021 49.2078 17.1875C51.1224 21.6064 51.3509 26.4815 49.8567 31.0324C48.3626 35.5834 45.2321 39.5471 40.9664 42.289C37.0413 44.849 32.3308 46.2236 27.5 46.2187Z" fill="#BA4F4F"/>
</svg>
